<svg width="1440" height="1702" viewBox="0 0 1440 1702" fill="none" xmlns="http://www.w3.org/2000/svg">
<g id="Contact Us" clip-path="url(#clip0)">
<rect width="1440" height="1702" fill="#F2F4F7"/>
<rect id="Rectangle 187" opacity="0.3" x="1111.72" y="1564.62" width="48.5" height="52" rx="7" transform="rotate(-44.7666 1111.72 1564.62)" stroke="#BA271B" stroke-width="2"/>
<rect id="Rectangle 190" opacity="0.3" x="590.586" y="967.741" width="48.5" height="52" rx="7" transform="rotate(-44.7666 590.586 967.741)" stroke="#BA271B" stroke-width="2"/>
<rect id="Rectangle 192" opacity="0.3" x="180.586" y="1106.74" width="48.5" height="52" rx="7" transform="rotate(-44.7666 180.586 1106.74)" stroke="#BA271B" stroke-width="2"/>
<rect id="Rectangle 196" opacity="0.3" x="247.586" y="706.741" width="48.5" height="52" rx="7" transform="rotate(-44.7666 247.586 706.741)" stroke="#BA271B" stroke-width="2"/>
<rect id="Rectangle 200" opacity="0.3" x="402.586" y="1482.37" width="25.25" height="27" rx="4" transform="rotate(-44.7666 402.586 1482.37)" stroke="#BA271B" stroke-width="2"/>
<rect id="Rectangle 201" opacity="0.3" x="836.586" y="1372.37" width="25.25" height="27" rx="4" transform="rotate(-44.7666 836.586 1372.37)" stroke="#BA271B" stroke-width="2"/>
<path id="Ellipse 1" opacity="0.1" d="M624.922 1052.27C619.331 1071.24 608.241 1088.13 593.052 1100.79C577.864 1113.46 559.26 1121.34 539.593 1123.44C519.926 1125.53 500.08 1121.75 482.563 1112.56C465.047 1103.38 450.647 1089.21 441.186 1071.84C431.724 1054.47 427.625 1034.69 429.407 1014.99C431.189 995.293 438.772 976.566 451.197 961.178C463.622 945.79 480.331 934.432 499.211 928.54C518.091 922.648 538.295 922.488 557.266 928.078L529 1024L624.922 1052.27Z" fill="#969696"/>
</g>
<defs>
<clipPath id="clip0">
<rect width="1440" height="1702" fill="white"/>
</clipPath>
</defs>
</svg>
